<svg xmlns="http://www.w3.org/2000/svg" data-name="Layer 1" viewBox="0 0 100 125" x="0px" y="0px"><defs><style>.cls-1{fill-rule:evenodd;}</style></defs><path class="cls-1" d="M41.125,57.98h-5.1A15.772,15.772,0,0,0,50.471,72.425v-5.1a10.7,10.7,0,0,1-9.346-9.346Zm12.832-2.55a1.275,1.275,0,0,1,0,2.55h-.936v1.185a1.275,1.275,0,1,1-2.55,0V57.98h-1.1a1.275,1.275,0,0,1,0-2.55h1.1v-.936a1.275,1.275,0,0,1,2.55,0v.936Zm5.836,2.55a8.152,8.152,0,0,1-6.772,6.772v-.983a1.275,1.275,0,1,0-2.55,0v.983A8.151,8.151,0,0,1,43.7,57.98h.983a1.275,1.275,0,0,0,0-2.55H43.7a8.152,8.152,0,0,1,6.772-6.772v1.087a1.275,1.275,0,0,0,2.55,0V48.658a8.153,8.153,0,0,1,6.772,6.772H58.706a1.275,1.275,0,0,0,0,2.55Zm7.673,0h-5.1a10.7,10.7,0,0,1-9.346,9.346v5.1A15.773,15.773,0,0,0,67.466,57.98Zm-13.575-16.9q-.434.153-.87.3v4.706a10.7,10.7,0,0,1,9.346,9.346h5.1A15.761,15.761,0,0,0,53.891,41.078Zm9.786-6.457c1.052.569,1.837,1.1,2.822,1.754l4.421-4.42h2.486l3.091,3.09v2.486l-4.421,4.421a25.848,25.848,0,0,1,4.483,10.81h6.246l1.758,1.758v4.371l-1.758,1.757H76.559a25.828,25.828,0,0,1-4.483,10.81L76.5,75.879v2.486l-3.091,3.091H70.92L66.5,77.035a25.813,25.813,0,0,1-10.81,4.483v6.247l-1.758,1.757H49.56L47.8,87.765V81.518a25.813,25.813,0,0,1-10.81-4.483l-4.421,4.421H30.086L27,78.365V75.879l4.421-4.421a25.813,25.813,0,0,1-4.483-10.81H20.686l-1.757-1.757V54.52l1.757-1.758h6.247l.206-1.026a25.049,25.049,0,0,1,2.249-6.44,57.822,57.822,0,0,0,8.308-.344A18.251,18.251,0,0,0,33.469,55.43H29.558a1.275,1.275,0,0,0,0,2.55h3.911a18.323,18.323,0,0,0,17,17v3.911a1.275,1.275,0,0,0,2.55,0V74.982a18.323,18.323,0,0,0,17-17h3.911a1.275,1.275,0,1,0,0-2.55H70.023a18.347,18.347,0,0,0-12.178-16c2.612-1.293,4.76-2.872,5.832-4.806ZM37.968,42.358c-7.375-.707-14.253-2.329-19.6-8.544-1.069.782-3.059,2.03-2.926,2.859.541,3.372,4.718,5.006,9.47,5.694a51.282,51.282,0,0,0,13.058-.009Zm9.588.6a1.411,1.411,0,0,1-.173.043c-1.939.48-3.746.866-5.224,1.179a15.858,15.858,0,0,0-3.88,4.312,15.666,15.666,0,0,0-2.254,6.943h5.1a10.7,10.7,0,0,1,9.346-9.346V42.172c-.986.284-1.966.544-2.915.781Zm5.57-30.067c-5.553.655-9.723,1.493-14.265,5.008-2.578,2-6.741,8.476-6.87,12.74-.068,2.232.94,3.323,3.083,3.65,7.822,1.2,19.492-1.69,26.153-5.95-1.257-6.388-2.272-11.522-8.1-15.448Zm-13.467-1.8c-2.147,1.428-2.918,2.585-4.7,4.19a16.753,16.753,0,0,0-3.464,4.273c-1.837,2.912-2.9,6.047-4.316,9.207A4.312,4.312,0,0,1,25.646,30.6a2.725,2.725,0,0,1-2.474.383,4.71,4.71,0,0,1-1.421-1A14.2,14.2,0,0,1,20.243,32.1c6.034,7.03,14.616,7.576,23.549,8.143,1.124.072,2.253.144,3.275.219,1.336-.331,2.725-.7,4.095-1.122a1.248,1.248,0,0,1,.425-.132c5.738-1.8,10.984-4.41,10.2-8.1l-.024-.113c-7.22,4.273-18.88,7.067-27.069,5.816-3.451-.527-5.351-2.751-5.245-6.239a15.954,15.954,0,0,1,1.482-5.726c1.654-3.761,4.416-7.442,6.375-8.957a24.816,24.816,0,0,1,11.6-4.967,21.024,21.024,0,0,0-9.253.171Zm-.812-2.423A31.333,31.333,0,0,1,42.3,8.08,17.684,17.684,0,0,1,53,9.819c9.137,5.211,9.468,12.21,11.278,20.755a6.028,6.028,0,0,1,.129,1.556l1.746.984,3.71-3.709h4.6l4.584,4.584v4.6L75.337,42.3a27.345,27.345,0,0,1,3.28,7.916h5.244l3.252,3.252v6.483L83.861,63.2H78.617a27.322,27.322,0,0,1-3.28,7.916l3.709,3.709v4.6l-4.584,4.585h-4.6L66.155,80.3a27.37,27.37,0,0,1-7.916,3.279v5.245l-3.252,3.251H48.505l-2.879-2.878-.373-.9V83.576A27.358,27.358,0,0,1,37.337,80.3l-3.709,3.709h-4.6l-4.584-4.585v-4.6l3.708-3.709A27.386,27.386,0,0,1,24.875,63.2H19.631L16.752,60.32l-.373-.9V53.992l.373-.9,2.879-2.878h5.244a27.173,27.173,0,0,1,1.763-5.081c-6.035-.545-12.811-2.466-13.708-8.06-.362-2.254,1.626-3.666,3.388-4.918a9.212,9.212,0,0,0,2.712-2.631,23.3,23.3,0,0,0,2.823-7.04c1.123-4.068,2.043-7.4,7.317-10.217a39.608,39.608,0,0,1,9.677-3.6ZM22.917,27.525A42.1,42.1,0,0,0,24.3,23.159c.964-3.492,1.753-6.35,6.062-8.652a35.532,35.532,0,0,1,3.381-1.579c-.155.145-.319.3-.495.455a18.487,18.487,0,0,0-3.811,4.65c-2.159,3.425-3.052,6.267-4.586,9.687a1.764,1.764,0,0,1-.614.759c-.114.075-.086.158-.122.143A5.948,5.948,0,0,1,22.917,27.525Z"/><text x="0" y="115" fill="#000000" font-size="5px" font-weight="bold" font-family="'Helvetica Neue', Helvetica, Arial-Unicode, Arial, Sans-serif">Created by SISWANTORO</text><text x="0" y="120" fill="#000000" font-size="5px" font-weight="bold" font-family="'Helvetica Neue', Helvetica, Arial-Unicode, Arial, Sans-serif">from the Noun Project</text></svg>