<svg xmlns="http://www.w3.org/2000/svg" viewBox="0 0 64 80" x="0px" y="0px"><g><path d="M32,13.55a13,13,0,1,0,13,13A13,13,0,0,0,32,13.55Zm0,24a11,11,0,1,1,11-11A11,11,0,0,1,32,37.55Zm19.4-11a6.71,6.71,0,0,1,1-2.62C53.18,22.5,54,21,53.5,19.56s-2.11-2.29-3.53-3a6.53,6.53,0,0,1-2.27-1.44A6.58,6.58,0,0,1,47,12.51C46.8,11,46.57,9.2,45.29,8.27s-2.93-.63-4.54-.34A6.51,6.51,0,0,1,38,8.09a6.35,6.35,0,0,1-2-1.68C34.87,5.25,33.63,4,32,4s-2.87,1.3-4,2.46a6.35,6.35,0,0,1-2,1.68,6.51,6.51,0,0,1-2.75-.16c-1.61-.29-3.27-.59-4.54.34S17.2,11,17,12.51a6.58,6.58,0,0,1-.69,2.64A6.53,6.53,0,0,1,14,16.59c-1.42.68-3,1.45-3.53,3s.32,2.94,1.08,4.37a6.71,6.71,0,0,1,1,2.62,6.71,6.71,0,0,1-1,2.62c-.76,1.42-1.56,2.9-1.08,4.37s2.11,2.29,3.53,3A6.53,6.53,0,0,1,16.3,38,6.58,6.58,0,0,1,17,40.59c.21,1.55.44,3.31,1.72,4.24a3.69,3.69,0,0,0,2.29.62v13.6a1,1,0,0,0,1.51.86L32,54.22l9.49,5.69a1,1,0,0,0,.51.14,1,1,0,0,0,.49-.13,1,1,0,0,0,.51-.87V45.45a3.69,3.69,0,0,0,2.29-.62c1.28-.93,1.51-2.69,1.72-4.24A6.58,6.58,0,0,1,47.7,38,6.53,6.53,0,0,1,50,36.51c1.42-.68,3-1.45,3.53-3s-.32-2.95-1.08-4.37A6.71,6.71,0,0,1,51.4,26.55ZM41,57.28l-8.49-5.09a1,1,0,0,0-1,0L23,57.28V45.21l.25,0A6.7,6.7,0,0,1,26,45a6.54,6.54,0,0,1,2,1.69c1.1,1.15,2.34,2.46,4,2.46s2.87-1.31,4-2.46A6.35,6.35,0,0,1,38,45a6.51,6.51,0,0,1,2.75.16l.25,0ZM51.6,32.92c-.23.71-1.38,1.26-2.49,1.79a7.71,7.71,0,0,0-3,2.07,7.77,7.77,0,0,0-1,3.55c-.16,1.21-.33,2.46-.92,2.89s-1.81.19-3,0a7.89,7.89,0,0,0-3.73-.1,7.51,7.51,0,0,0-2.86,2.22c-.86.9-1.74,1.83-2.52,1.83s-1.66-.93-2.52-1.83a7.51,7.51,0,0,0-2.86-2.22,4.39,4.39,0,0,0-1.36-.19,13,13,0,0,0-2.37.29c-1.19.21-2.42.44-3,0s-.76-1.68-.92-2.89a7.77,7.77,0,0,0-1-3.55,7.61,7.61,0,0,0-3-2.07c-1.11-.53-2.26-1.08-2.49-1.79s.38-1.75.94-2.8a7.93,7.93,0,0,0,1.26-3.57A7.93,7.93,0,0,0,13.34,23c-.56-1.05-1.15-2.14-.94-2.8s1.38-1.26,2.49-1.79a7.71,7.71,0,0,0,3-2.07,7.77,7.77,0,0,0,1-3.55c.16-1.21.33-2.46.92-2.89s1.81-.19,3,0a7.89,7.89,0,0,0,3.73.1,7.51,7.51,0,0,0,2.86-2.22C30.34,6.88,31.22,6,32,6s1.66.93,2.52,1.83A7.51,7.51,0,0,0,37.38,10a7.89,7.89,0,0,0,3.73-.1c1.19-.21,2.42-.44,3,0s.76,1.68.92,2.89a7.77,7.77,0,0,0,1,3.55,7.61,7.61,0,0,0,3,2.07c1.11.53,2.26,1.08,2.49,1.79s-.38,1.75-.94,2.8a7.93,7.93,0,0,0-1.26,3.57,7.93,7.93,0,0,0,1.26,3.57C51.22,31.17,51.81,32.26,51.6,32.92ZM38.36,22.31a1,1,0,0,1,0,1.41l-7.07,7.07a1,1,0,0,1-1.41,0l-4.24-4.24a1,1,0,1,1,1.41-1.41l3.54,3.53L37,22.31A1,1,0,0,1,38.36,22.31Z"/></g><text x="0" y="79" fill="#000000" font-size="5px" font-weight="bold" font-family="'Helvetica Neue', Helvetica, Arial-Unicode, Arial, Sans-serif">Created by Iwan Setyo</text><text x="0" y="84" fill="#000000" font-size="5px" font-weight="bold" font-family="'Helvetica Neue', Helvetica, Arial-Unicode, Arial, Sans-serif">from the Noun Project</text></svg>