<svg xmlns="http://www.w3.org/2000/svg" version="1.1" viewBox="-5.0 -10.0 110.0 135.0">
 <path d="m45.375 67.57-1.2266 0.61719 3.2266 4.875 1.2266-0.61719zm17.566 18.512h7.3867c0.53516 0 0.96484 0.43359 0.96484 0.96484v3.5742c0 0.53516-0.43359 0.96484-0.96484 0.96484h-7.3867c-0.53516 0-0.96484-0.43359-0.96484-0.96484v-3.5742c0-0.53125 0.42969-0.96484 0.96484-0.96484zm6.4219 1.9297h-5.457v1.6406h5.457zm11.453-1.9297h7.3867c0.53516 0 0.96484 0.43359 0.96484 0.96484v1.7852c0 0.75781-0.30859 1.4453-0.80859 1.9453-0.49609 0.49609-1.1875 0.80859-1.9453 0.80859h-3.8125c-0.75781 0-1.4453-0.30859-1.9453-0.80859-0.49609-0.5-0.80859-1.1875-0.80859-1.9453v-1.7852c0.003906-0.53125 0.43359-0.96484 0.96875-0.96484zm6.4219 1.9297h-5.457v0.82031c0 0.22656 0.09375 0.42969 0.24219 0.57812 0.14844 0.14844 0.35547 0.24219 0.57812 0.24219h3.8125c0.22656 0 0.42969-0.09375 0.57813-0.24219 0.14844-0.14844 0.24219-0.35547 0.24219-0.57812zm-10.703-3.0078v7.4766h15.945v-6.5391c0-1.7969-0.73438-3.4297-1.9219-4.6172-1.1836-1.1836-2.8203-1.9219-4.6172-1.9219h-2.6016l-4.0078 6.0586c-0.27734 0.41797-0.82422 0.55078-1.2578 0.31641zm-1.9297 7.4766v-7.4766l-1.5391 0.77734c-0.43359 0.23047-0.98047 0.10156-1.2578-0.31641l-4.0078-6.0586h-2.6016c-1.4883 0-2.8672 0.50781-3.9727 1.3555l-0.007812 0.003906c-0.22656 0.17578-0.44141 0.36328-0.64062 0.5625-1.1836 1.1836-1.9219 2.8203-1.9219 4.6172v6.5391zm4.293-15.82-3.3281 5.0352-3.3281-5.0352v-3.0859c0.18359 0.019531 0.375 0.027343 0.5625 0.027343h5.5312c0.19141 0 0.37891-0.007812 0.5625-0.027343zm1.9336-3.5977v3.293l2.2148 1.1172h2.8945c2.332 0 4.4492 0.95312 5.9805 2.4883 1.5352 1.5352 2.4883 3.6523 2.4883 5.9805v7.5039c0 0.53516-0.43359 0.96484-0.96484 0.96484h-35.75c-0.53516 0-0.96484-0.43359-0.96484-0.96484v-7.5039c0-0.74219 0.097656-1.4648 0.27734-2.1523h-14.016c0.17969 0.6875 0.27734 1.4102 0.27734 2.1523v7.5039c0 0.53516-0.43359 0.96484-0.96484 0.96484h-17.875l-17.875 0.003906c-0.53516 0-0.96484-0.43359-0.96484-0.96484v-7.5039c0-2.332 0.95312-4.4492 2.4883-5.9805 1.5352-1.5352 3.6523-2.4883 5.9805-2.4883h2.8945l2.2148-1.1172v-3.293c-0.67578-0.30469-1.2852-0.73047-1.8047-1.25-1.1016-1.1016-1.7852-2.625-1.7852-4.2969v-4.1562c-0.70703-0.03125-1.3477-0.33203-1.8164-0.80078-0.49609-0.49609-0.80469-1.1797-0.80469-1.9336s0.30859-1.4414 0.80469-1.9336c0.23047-0.23047 0.50391-0.42187 0.80469-0.55859 0.14453-1.6914 0.78906-3.25 1.8008-4.5586 0.98047-1.2734 2.3125-2.3008 3.8633-2.9727l-0.30469-0.91016c-0.41797-1.2461 0.36719-2.0664 1.707-2.5195 0.77734-0.26172 1.7891-0.39062 2.7891-0.39062s2.0117 0.13281 2.7891 0.39062c1.3438 0.44922 2.1289 1.2734 1.7148 2.5156l-0.30469 0.91016c1.5469 0.66797 2.8789 1.6992 3.8633 2.9727 1.0117 1.3086 1.6562 2.8672 1.8008 4.5586 0.30078 0.13672 0.57422 0.32813 0.80469 0.55859 0.49609 0.49609 0.80469 1.1797 0.80469 1.9336s-0.30859 1.4414-0.80469 1.9336c-0.46875 0.46875-1.1094 0.76953-1.8164 0.80078v4.1562c0 1.6758-0.68359 3.1953-1.7852 4.2969-0.51953 0.51953-1.1289 0.94531-1.8047 1.25v3.293l1.4727 0.74219v-1.7773c0-2.332 0.95312-4.4492 2.4883-5.9805 1.5352-1.5352 3.6523-2.4883 5.9805-2.4883h2.8945l2.2148-1.1172v-3.293c-0.67578-0.30469-1.2852-0.73047-1.8047-1.25-1.1016-1.1016-1.7852-2.625-1.7852-4.2969v-4.1562c-0.70703-0.03125-1.3477-0.33203-1.8164-0.80078-0.49609-0.49609-0.80469-1.1797-0.80469-1.9336s0.30859-1.4414 0.80469-1.9336c0.23047-0.23047 0.50391-0.42187 0.80469-0.55859 0.042969-0.52344 0.13672-1.0352 0.27344-1.5312l-4.3477 2.6133c-0.38672 0.23047-0.87109 0.16016-1.1758-0.14453l-3.7422-3.7383c-0.33984-0.33984-0.37109-0.86719-0.10156-1.2422l3.9062-6.4961c-0.15625-0.32031-0.30078-0.63672-0.43359-0.95703-0.13281-0.31641-0.25391-0.64453-0.37109-0.98047l-7.4258-1.8477c-0.44141-0.10938-0.73438-0.50391-0.73438-0.93359l-0.003907-5.2891c0-0.47656 0.34375-0.87109 0.80078-0.94922l7.3633-1.832c0.11719-0.33594 0.23828-0.66406 0.37109-0.98047 0.13281-0.32031 0.27734-0.63672 0.43359-0.95703l-3.9492-6.5625c-0.23047-0.38672-0.16016-0.87109 0.14453-1.1758l3.7383-3.7422c0.33984-0.33984 0.86719-0.37109 1.2422-0.10156l6.4961 3.9062c0.32031-0.15625 0.63672-0.30078 0.95703-0.43359 0.31641-0.13281 0.64453-0.25391 0.98047-0.37109l1.8477-7.4258c0.10938-0.44141 0.50391-0.73438 0.93359-0.73438l5.2891-0.003907c0.47656 0 0.87109 0.34375 0.94922 0.80078l1.832 7.3633c0.33594 0.11719 0.66406 0.23828 0.98047 0.36719 0.32031 0.13281 0.63672 0.27734 0.95703 0.43359l6.5625-3.9492c0.38672-0.23047 0.87109-0.16016 1.1758 0.14453l3.7422 3.7383c0.33984 0.33984 0.37109 0.86719 0.10156 1.2422l-3.9062 6.4961c0.15625 0.32031 0.30078 0.63672 0.43359 0.95703 0.13281 0.31641 0.25391 0.64453 0.37109 0.98047l7.4258 1.8477c0.44141 0.10937 0.73438 0.50391 0.73438 0.93359l0.003906 5.2891c0 0.47656-0.34375 0.87109-0.80078 0.94922l-7.3633 1.832c-0.11328 0.33984-0.23828 0.66406-0.37109 0.98047-0.13281 0.32031-0.27734 0.63672-0.43359 0.95703l3.9453 6.5625c0.23047 0.38672 0.16016 0.87109-0.14453 1.1758l-3.7383 3.7422c-0.33984 0.33984-0.86719 0.37109-1.2422 0.10156l-4.2578-2.5742c0.13672 0.49609 0.23047 1.0078 0.27344 1.5312 0.30078 0.13672 0.57422 0.32812 0.80469 0.55859 0.49609 0.49609 0.80469 1.1797 0.80469 1.9336s-0.30859 1.4414-0.80469 1.9336c-0.46875 0.46875-1.1094 0.76953-1.8164 0.80078v4.1562c0 1.6758-0.68359 3.1953-1.7852 4.2969-0.51953 0.51953-1.1289 0.94531-1.8047 1.25v3.293l2.2148 1.1172h2.8945c2.332 0 4.4492 0.95312 5.9805 2.4883 1.5352 1.5352 2.4883 3.6523 2.4883 5.9805v1.7773l1.4727-0.74219v-3.293c-0.67578-0.30469-1.2852-0.73047-1.8047-1.25-1.1016-1.1016-1.7852-2.625-1.7852-4.2969v-4.1562c-0.70703-0.03125-1.3477-0.33203-1.8164-0.80078-0.49609-0.49609-0.80469-1.1797-0.80469-1.9336 0-0.75391 0.30859-1.4414 0.80469-1.9336 0.23047-0.23047 0.50391-0.42188 0.80469-0.55859 0.14453-1.6914 0.78906-3.25 1.8008-4.5586 0.98047-1.2734 2.3125-2.3008 3.8633-2.9727l-0.30469-0.91016c-0.41797-1.2461 0.36719-2.0664 1.7109-2.5195 0.77734-0.26172 1.7891-0.39062 2.7891-0.39062s2.0117 0.13281 2.7891 0.39062c1.3438 0.44922 2.1289 1.2734 1.7148 2.5156l-0.30469 0.91016c1.5469 0.66797 2.8789 1.6992 3.8633 2.9727 1.0117 1.3086 1.6562 2.8672 1.8008 4.5586 0.30078 0.13672 0.57422 0.32812 0.80469 0.55859 0.49609 0.49609 0.80469 1.1797 0.80469 1.9336 0 0.75391-0.30859 1.4414-0.80469 1.9336-0.46875 0.46875-1.1094 0.76953-1.8164 0.80078v4.1562c0 1.6758-0.68359 3.1953-1.7852 4.2969-0.51172 0.53125-1.1211 0.95703-1.7969 1.2617zm-9.8867 5.1289 3.2227 4.875-1.2266 0.61719-3.2266-4.875zm10.477 0.61719-3.2227 4.875-1.2266-0.61719 3.2227-4.875zm-2.2695-26.375-1.1992 3.582c-0.13281 0.40234-0.51172 0.65625-0.91406 0.65625v0.003906h-2.9375c-0.45312 0-0.83203-0.3125-0.9375-0.73438l-1.1758-3.5078c-1.1836 0.53906-2.1992 1.3398-2.9531 2.3164-0.70312 0.91016-1.1797 1.9805-1.3516 3.1367l15.773-0.003907c-0.17188-1.1562-0.64844-2.2266-1.3516-3.1367-0.75391-0.97656-1.7656-1.7734-2.9531-2.3125zm-2.8047 2.3086 1.2852-3.832c0.003907-0.011718 0.007813-0.023437 0.011719-0.035156 0.007813-0.019531 0.011719-0.035156 0.019531-0.054688l0.58203-1.7422c0.019531-0.054687-0.22266 0.011719-0.5-0.078125-0.58203-0.19531-1.375-0.29297-2.1797-0.29297-0.80469 0-1.5977 0.097657-2.1797 0.29297-0.27344 0.089844-0.51172 0.027344-0.49609 0.082031l1.8984 5.6641zm7.9531 5.0703h-17.461c-0.22266 0-0.42188 0.089844-0.57031 0.23828-0.14844 0.14844-0.23828 0.34766-0.23828 0.57031s0.089844 0.42578 0.23828 0.57031c0.14844 0.14844 0.34766 0.23828 0.57031 0.23828h17.465c0.22266 0 0.42578-0.089844 0.57031-0.23828 0.14844-0.14844 0.23828-0.34766 0.23828-0.57031s-0.089843-0.42188-0.23828-0.57031c-0.15234-0.14453-0.35156-0.23828-0.57422-0.23828zm-1.8125 3.5508h-13.836v4.1523c0 1.1406 0.46875 2.1797 1.2227 2.9336 0.46875 0.46875 1.0469 0.82422 1.6914 1.0273l0.011719 0.003907c0.39062 0.12109 0.80469 0.1875 1.2305 0.1875h5.5312c0.42969 0 0.83984-0.066407 1.2305-0.1875l0.011719-0.003907c0.64453-0.20312 1.2227-0.5625 1.6914-1.0273 0.75391-0.75391 1.2227-1.793 1.2227-2.9336l-0.003906-4.1523zm-70.691 22.719c-0.53516 0-0.96484 0.43359-0.96484 0.96484v3.5742c0 0.53516 0.43359 0.96484 0.96484 0.96484h7.3867c0.53516 0 0.96484-0.43359 0.96484-0.96484v-3.5742c0-0.53516-0.43359-0.96484-0.96484-0.96484zm6.4219 1.9297h-5.457v1.6406h5.457zm11.453-1.9297c-0.53516 0-0.96484 0.43359-0.96484 0.96484v1.7852c0 0.75781 0.30859 1.4453 0.80859 1.9453 0.5 0.49609 1.1875 0.80859 1.9453 0.80859h3.8125c0.75781 0 1.4453-0.30859 1.9453-0.80859 0.49609-0.5 0.80859-1.1875 0.80859-1.9453v-1.7852c0-0.53516-0.43359-0.96484-0.96484-0.96484zm6.4219 1.9297h-5.457v0.82031c0 0.22656 0.09375 0.42969 0.24219 0.57812 0.14844 0.14844 0.35547 0.24219 0.57812 0.24219h3.8125c0.22656 0 0.42969-0.09375 0.57812-0.24219 0.14844-0.14844 0.24219-0.35547 0.24219-0.57812zm-10.699-3.0078v7.4766h15.945v-6.5391c0-1.7969-0.73828-3.4297-1.9219-4.6172-0.19922-0.19922-0.41406-0.38672-0.64062-0.5625l-0.007813-0.003907c-0.51953-0.39844-1.1016-0.72266-1.7266-0.95312l-0.007813-0.003907c-0.69922-0.25781-1.4492-0.39453-2.2344-0.39453l-2.6016-0.003906-4.0078 6.0586c-0.27734 0.41797-0.82422 0.55078-1.2578 0.31641zm-1.9297 7.4766v-7.4766l-1.5391 0.77734c-0.43359 0.23047-0.98047 0.10156-1.2578-0.31641l-4.0078-6.0586h-2.6016c-1.7969 0-3.4336 0.73828-4.6172 1.9219s-1.9219 2.8203-1.9219 4.6172v6.5391zm4.293-15.82v-3.0859c-0.18359 0.019531-0.37109 0.027343-0.5625 0.027343h-5.5312c-0.19141 0-0.37891-0.007812-0.5625-0.027343v3.0859l3.3281 5.0352zm-7.9531 1.5312-1.2266 0.61719 3.2227 4.875 1.2266-0.61719zm10.477 0.61719-1.2266-0.61719-3.2227 4.875 1.2266 0.61719zm-13.738-20.926h15.773c-0.17188-1.1562-0.64844-2.2266-1.3516-3.1367-0.75391-0.97656-1.7695-1.7734-2.9531-2.3125l-1.1992 3.582c-0.13672 0.40234-0.51172 0.65625-0.91406 0.65625v0.003906h-2.9375c-0.45313 0-0.83594-0.3125-0.9375-0.73438l-1.1758-3.5078c-1.1836 0.53906-2.1992 1.3398-2.9531 2.3164-0.70312 0.90625-1.1797 1.9766-1.3516 3.1328zm16.617 1.9297h-17.461c-0.22266 0-0.42188 0.089844-0.57031 0.23828-0.14844 0.14844-0.23828 0.34766-0.23828 0.57031s0.089844 0.42578 0.23828 0.57031c0.14844 0.14844 0.34766 0.23828 0.57031 0.23828h0.84766l15.766 0.003906h0.84766c0.22266 0 0.42578-0.089844 0.57031-0.23828 0.14844-0.14844 0.23828-0.34766 0.23828-0.57031s-0.089844-0.42188-0.23828-0.57031c-0.14844-0.14844-0.35156-0.24219-0.57031-0.24219zm-0.070312 17.66v-2.1523c0-1.7969 0.73438-3.4297 1.9219-4.6172 1.1836-1.1836 2.8203-1.9219 4.6172-1.9219h2.6016l4.0078 6.0586c0.27734 0.41797 0.82422 0.55078 1.2578 0.31641l1.5391-0.77734v7.4766h-6.8203c-0.17188-0.30859-0.36328-0.60938-0.57031-0.89453h3.1133c0.53516 0 0.96484-0.43359 0.96484-0.96484v-3.5742c0-0.53516-0.43359-0.96484-0.96484-0.96484h-7.3867c-0.53516 0-0.96484 0.43359-0.96484 0.96484v1.1992c-0.51953-0.10156-1.0547-0.15234-1.6055-0.15234zm5.2461 0.77734c0.47656 0.21875 0.92969 0.48438 1.3516 0.78516h4.1055v-1.6406h-5.457zm9.0898-39.82c-0.019531 0.042968-0.042969 0.085937-0.066406 0.12109l1.8672 5.5664h1.5547l1.2852-3.832c0.003906-0.011718 0.007813-0.023437 0.011719-0.035156 0.007813-0.019531 0.011719-0.035156 0.019531-0.054688l0.55078-1.6445c-0.023438-0.039062-0.046876-0.082031-0.066407-0.125-0.09375 0-0.23828 0-0.39844-0.054687-0.58203-0.19531-1.375-0.29297-2.1797-0.29297-0.80469 0-1.5977 0.097656-2.1797 0.29297-0.16406 0.054687-0.30859 0.058594-0.39844 0.058594zm-2.0312 0.12891c-1.5195-0.78516-2.8164-1.9414-3.7617-3.3555-1.0781-1.6055-1.707-3.5352-1.707-5.6055 0-2.7812 1.1289-5.3008 2.9492-7.125 1.8242-1.8242 4.3438-2.9492 7.125-2.9492s5.3008 1.1289 7.125 2.9492c1.8242 1.8242 2.9492 4.3438 2.9492 7.125 0 2.0703-0.62891 4-1.707 5.6055-0.94531 1.4102-2.2422 2.5664-3.7617 3.3516-0.011719 0.16016-0.046875 0.33203-0.10547 0.51172l-0.30469 0.91016c1.4414 0.62109 2.6914 1.5586 3.6523 2.7109 0.015625 0.007812 0.035156 0.019531 0.050782 0.027344l6.3711 3.832 2.6758-2.6758-3.832-6.375c-0.16797-0.28125-0.1875-0.63672-0.023437-0.94531 0.21484-0.40234 0.41406-0.83203 0.60156-1.2812 0.17969-0.42969 0.33203-0.85547 0.46484-1.2734 0.082031-0.33594 0.34375-0.61719 0.70703-0.70703l7.2109-1.793v-3.7852l-7.2109-1.793c-0.32031-0.078125-0.58984-0.32031-0.69141-0.65625-0.13281-0.4375-0.29297-0.88281-0.48047-1.3281-0.18359-0.4375-0.37891-0.85547-0.58594-1.2461-0.17188-0.29297-0.18359-0.66797 0.003906-0.98047l3.832-6.3711-2.6758-2.6758-6.375 3.832c-0.28125 0.16797-0.63672 0.1875-0.94531 0.023437-0.40234-0.21484-0.83203-0.41406-1.2852-0.60156-0.42969-0.17969-0.85547-0.33203-1.2734-0.46484-0.33594-0.082031-0.61719-0.34375-0.70703-0.70703l-1.793-7.2109h-3.7852l-1.793 7.2109c-0.078125 0.32031-0.31641 0.58984-0.65234 0.69141-0.4375 0.13281-0.87891 0.29297-1.3281 0.48047-0.4375 0.18359-0.85547 0.37891-1.25 0.58594-0.29297 0.17188-0.66797 0.17969-0.98047-0.003906l-6.375-3.832-2.6758 2.6758 3.832 6.375c0.16797 0.28125 0.1875 0.63672 0.023438 0.94531-0.21484 0.40234-0.41406 0.83203-0.60156 1.2812-0.17969 0.42969-0.33203 0.85547-0.46484 1.2773-0.082032 0.33594-0.34375 0.61719-0.70703 0.70703l-7.2109 1.793v3.7852l7.2109 1.793c0.32031 0.078125 0.58984 0.32031 0.69141 0.65625 0.13281 0.4375 0.29297 0.88281 0.48047 1.3281 0.18359 0.4375 0.37891 0.85547 0.58594 1.2461 0.17188 0.29297 0.18359 0.66797-0.003907 0.98047l-3.832 6.3711 2.6758 2.6758 6.3359-3.8086c0.027344-0.019532 0.058594-0.035156 0.089844-0.054688 0.96094-1.1523 2.2109-2.0859 3.6523-2.707l-0.30469-0.91016c-0.058594-0.1875-0.097656-0.35547-0.10547-0.51562zm8.207-1.6484c1.2852-0.63281 2.375-1.5977 3.168-2.7773 0.86719-1.293 1.375-2.8516 1.375-4.5352 0-2.25-0.91016-4.2852-2.3867-5.7578-1.4727-1.4727-3.5117-2.3867-5.7578-2.3867-2.25 0-4.2852 0.91016-5.7578 2.3867-1.4727 1.4727-2.3867 3.5117-2.3867 5.7578 0 1.6797 0.50781 3.2422 1.375 4.5352 0.79297 1.1797 1.8828 2.1445 3.168 2.7773 0.23828-0.14062 0.51172-0.25781 0.8125-0.35938 0.77734-0.26172 1.7891-0.39062 2.7891-0.39062s2.0117 0.13281 2.7891 0.39062c0.30078 0.10156 0.57422 0.22266 0.8125 0.35938zm-0.019531 4.8984-1.1992 3.582c-0.13281 0.40234-0.51172 0.65625-0.91406 0.65625v0.003906h-2.9375c-0.45312 0-0.83203-0.3125-0.9375-0.73438l-1.1758-3.5078c-1.1836 0.53906-2.1992 1.3398-2.9531 2.3164l-0.007813 0.011719c-0.015625 0.019531-0.027343 0.039062-0.042969 0.058593-0.67578 0.89844-1.1328 1.9414-1.3008 3.0703h15.773c-0.16797-1.1289-0.625-2.1719-1.3008-3.0703-0.015626-0.019531-0.027344-0.035156-0.042969-0.054687l-0.007813-0.011719c-0.75391-0.98047-1.7695-1.7773-2.9531-2.3203zm5.1484 7.3828h-17.461c-0.22266 0-0.42578 0.089844-0.57031 0.23828-0.14844 0.14844-0.23828 0.34766-0.23828 0.57031s0.089843 0.42578 0.23828 0.57031c0.14844 0.14844 0.34766 0.23828 0.57031 0.23828h17.465c0.22266 0 0.42578-0.089844 0.57031-0.23828 0.14844-0.14844 0.23828-0.34766 0.23828-0.57031s-0.089844-0.42188-0.23828-0.57031c-0.15234-0.14844-0.35547-0.23828-0.57422-0.23828zm-5.4023 13.762v3.0859l-3.3281 5.0312-3.3281-5.0352v-3.0859c0.18359 0.015625 0.375 0.027343 0.5625 0.027343h5.5312c0.19141 0 0.37891-0.007812 0.5625-0.023437zm3.5898-10.215h-13.836v4.1523c0 1.1406 0.46875 2.1797 1.2227 2.9336 0.46875 0.46875 1.0469 0.82422 1.6914 1.0273l0.011718 0.003907c0.39063 0.12109 0.80469 0.1875 1.2305 0.1875h5.5312c0.42969 0 0.83984-0.066407 1.2305-0.1875l0.011719-0.003907c0.64453-0.20312 1.2227-0.5625 1.6914-1.0273 0.75391-0.75391 1.2227-1.793 1.2227-2.9336zm-5.9531 21.645 1.5391 0.77734c0.43359 0.23047 0.98047 0.10156 1.2578-0.31641l4.0078-6.0586h2.6016c1.7969 0 3.4297 0.73438 4.6172 1.9219 1.1836 1.1836 1.9219 2.8203 1.9219 4.6172v2.1523h-1.707c-0.54688 0-1.0859 0.050782-1.6055 0.15234v-1.1992c0-0.53516-0.43359-0.96484-0.96484-0.96484h-7.3867c-0.53516 0-0.96484 0.43359-0.96484 0.96484v1.7852c0 0.75781 0.30859 1.4453 0.80859 1.9453s1.1875 0.80859 1.9453 0.80859h1.3281c-0.20703 0.28516-0.39844 0.58594-0.57031 0.89453h-6.8203zm10.699 3.8672v-0.039062-0.82031h-5.457v0.82031c0 0.22656 0.09375 0.42969 0.24219 0.57812 0.14844 0.14844 0.35547 0.24219 0.57812 0.24219h3.2852c0.42578-0.30078 0.875-0.5625 1.3516-0.78125zm-30.316-14.887h-13.836v4.1523c0 1.1406 0.46875 2.1797 1.2227 2.9336 0.46875 0.46875 1.0469 0.82422 1.6914 1.0273l0.011719 0.003907c0.39062 0.12109 0.80469 0.1875 1.2305 0.1875h5.5312c0.42969 0 0.83984-0.066407 1.2305-0.1875l0.011718-0.003907c0.64453-0.20312 1.2227-0.5625 1.6914-1.0273 0.75391-0.75391 1.2227-1.793 1.2227-2.9336zm-4.8555-12.453c0.003906-0.011718 0.007812-0.023437 0.011718-0.035156 0.007813-0.019531 0.011719-0.035156 0.019532-0.054688l0.58203-1.7422c0.019531-0.054687-0.22266 0.011719-0.5-0.078125-0.58203-0.19531-1.375-0.29297-2.1797-0.29297-0.80469 0-1.5977 0.097657-2.1797 0.29297-0.27344 0.089844-0.51172 0.027344-0.49609 0.082031l1.8984 5.6641h1.5547zm29.359 17.277-1.2266-0.61719-3.2227 4.875 1.2266 0.61719z" fill-rule="evenodd"/>
<text x="0.0" y="117.5" font-size="5.0" font-weight="bold" font-family="Arbeit Regular, Helvetica, Arial-Unicode, Arial, Sans-serif" fill="#000000">Created by Dava Arya Ditya</text><text x="0.0" y="122.5" font-size="5.0" font-weight="bold" font-family="Arbeit Regular, Helvetica, Arial-Unicode, Arial, Sans-serif" fill="#000000">from Noun Project</text></svg>